HIERARCHY
ROOT root
{
	OFFSET 0.000000 0.000000 0.000000
	CHANNELS 6 Xposition Yposition Zposition Zrotation Yrotation Xrotation
	JOINT lhip
	{
		OFFSET 0.058581 -0.082280 -0.017664
		CHANNELS 3 Zrotation Yrotation Xrotation
		JOINT lknee
		{
			OFFSET 0.043451 -0.386469 0.008037
			CHANNELS 3 Zrotation Yrotation Xrotation
			JOINT lankle
			{
				OFFSET -0.014790 -0.426874 -0.037428
				CHANNELS 3 Zrotation Yrotation Xrotation
				JOINT ltoe
				{
					OFFSET 0.041054 -0.060286 0.122042
					CHANNELS 3 Zrotation Yrotation Xrotation
					End Site
					{
						OFFSET 0.000000 0.000000 0.000000
					}
				}
			}
		}
	}
	JOINT rhip
	{
		OFFSET -0.060310 -0.090513 -0.013543
		CHANNELS 3 Zrotation Yrotation Xrotation
		JOINT rknee
		{
			OFFSET -0.043257 -0.383688 -0.004843
			CHANNELS 3 Zrotation Yrotation Xrotation
			JOINT rankle
			{
				OFFSET 0.019056 -0.420046 -0.034562
				CHANNELS 3 Zrotation Yrotation Xrotation
				JOINT rtoe
				{
					OFFSET -0.034840 -0.062106 0.130323
					CHANNELS 3 Zrotation Yrotation Xrotation
					End Site
					{
						OFFSET 0.000000 0.000000 0.000000
					}
				}
			}
		}
	}
	JOINT lowerback
	{
		OFFSET 0.004439 0.124404 -0.038385
		CHANNELS 3 Zrotation Yrotation Xrotation
		JOINT upperback
		{
			OFFSET 0.004488 0.137956 0.026820
			CHANNELS 3 Zrotation Yrotation Xrotation
			JOINT chest
			{
				OFFSET -0.002265 0.056032 0.002855
				CHANNELS 3 Zrotation Yrotation Xrotation
				JOINT lowerneck
				{
					OFFSET -0.013390 0.211636 -0.033468
					CHANNELS 3 Zrotation Yrotation Xrotation
					JOINT upperneck
					{
						OFFSET 0.010113 0.088937 0.050410
						CHANNELS 3 Zrotation Yrotation Xrotation
						End Site
						{
							OFFSET 0.000000 0.000000 0.000000
						}
					}
				}
				JOINT lclavicle
				{
					OFFSET 0.071702 0.114000 -0.018898
					CHANNELS 3 Zrotation Yrotation Xrotation
					JOINT lshoulder
					{
						OFFSET 0.122921 0.045205 -0.019046
						CHANNELS 3 Zrotation Yrotation Xrotation
						JOINT lelbow
						{
							OFFSET 0.255332 -0.015649 -0.022946
							CHANNELS 3 Zrotation Yrotation Xrotation
							JOINT lwrist
							{
								OFFSET 0.265709 0.012698 -0.007375
								CHANNELS 3 Zrotation Yrotation Xrotation
								End Site
								{
									OFFSET 0.000000 0.000000 0.000000
								}
							}
						}
					}
				}
				JOINT rclavicle
				{
					OFFSET -0.082954 0.112472 -0.023707
					CHANNELS 3 Zrotation Yrotation Xrotation
					JOINT rshoulder
					{
						OFFSET -0.113228 0.046853 -0.008472
						CHANNELS 3 Zrotation Yrotation Xrotation
						JOINT relbow
						{
							OFFSET -0.260127 -0.014369 -0.031269
							CHANNELS 3 Zrotation Yrotation Xrotation
							JOINT rwrist
							{
								OFFSET -0.269108 0.006794 -0.006027
								CHANNELS 3 Zrotation Yrotation Xrotation
								End Site
								{
									OFFSET 0.000000 0.000000 0.000000
								}
							}
						}
					}
				}
			}
		}
	}
}
MOTION
Frames: 7
Frame Time: 0.033333
-0.053035 -0.118792 0.938974 -176.202440 0.026425 90.318664 9.278261 1.275546 -20.525317 -8.873663 -3.769855 30.721559 3.115907 3.664988 -15.149409 0.000000 -0.000000 0.000000 -12.023777 -9.018047 -18.732509 1.325612 -4.789280 28.285299 3.039734 -2.448953 -13.185464 0.000000 -0.000000 0.000000 1.919672 5.896323 18.235442 4.297040 -4.261034 6.263417 2.869986 0.236414 -2.148229 -0.466363 9.070793 13.835958 2.704647 0.369815 16.626194 -13.805606 -29.674708 3.212706 -81.913951 -30.810700 31.266120 0.405059 -12.575532 16.991017 1.212430 16.154978 -25.360642 18.670052 26.612509 8.870769 73.405433 31.519288 16.016895 -11.273361 7.267901 -23.122399 14.770769 6.829741 -60.157440 
-0.053529 -0.119044 0.939157 -176.027784 0.071304 90.387502 9.308504 1.137375 -20.656353 -8.851563 -3.674709 30.773175 3.265404 3.533262 -15.157467 0.000000 -0.000000 0.000000 -12.018337 -8.634901 -18.513598 1.327321 -4.325978 28.078490 2.921283 -2.295109 -13.784567 0.000000 -0.000000 0.000000 2.032094 5.815694 18.178910 4.376872 -4.181735 6.193661 2.791097 0.268337 -2.068822 -0.275841 9.143425 13.658081 2.556284 0.088339 16.915139 -13.697979 -29.448429 3.265914 -82.020731 -30.925141 31.277129 0.439577 -12.579875 17.645374 -0.634636 15.007175 -26.099770 18.474653 26.134465 8.461421 74.014831 31.496508 16.503590 -11.506457 6.992394 -22.658740 15.232566 7.212538 -60.227906 
-0.053992 -0.118907 0.938884 -175.939373 0.076685 90.388551 9.248438 1.117646 -20.629172 -8.874294 -3.785021 30.737206 3.315145 3.560944 -15.177129 0.000000 -0.000000 0.000000 -12.053890 -8.585862 -18.453998 1.379272 -4.155808 28.065613 2.807503 -2.295672 -14.097031 0.000000 -0.000000 0.000000 2.084284 5.830666 18.199845 4.428503 -4.183023 6.095739 2.785156 0.240728 -2.027208 -0.327953 9.119247 13.743868 2.653866 0.155313 16.832040 -13.762505 -29.582664 3.359541 -81.896084 -30.928033 31.313997 0.514956 -12.698477 17.639694 0.117650 15.439552 -25.767667 18.561965 26.303736 8.456376 73.938159 31.398002 16.464893 -11.567808 6.930325 -22.778288 15.155333 7.079080 -60.356456 
-0.054338 -0.118874 0.938645 -175.904897 0.093364 90.412357 9.265363 1.094342 -20.670639 -8.944684 -3.798979 30.785753 3.365240 3.617732 -15.228187 0.000000 -0.000000 0.000000 -11.995536 -8.257488 -18.247448 1.322396 -3.457098 27.780433 2.890008 -2.172608 -14.533579 0.000000 -0.000000 0.000000 2.057225 5.858129 18.127510 4.486229 -4.210804 6.191858 2.801581 0.265415 -2.003405 -0.286795 9.181011 13.636914 2.682875 0.240222 16.851283 -13.682326 -29.595716 3.271043 -81.917432 -31.040651 31.326725 0.374674 -12.523007 17.512302 1.098389 15.750431 -25.411849 18.542519 26.263594 8.488893 73.998367 31.658662 16.460336 -11.517763 6.691240 -22.979688 15.166943 7.172962 -59.961746 
-0.054484 -0.118690 0.938788 -176.019625 0.078930 90.350055 9.223074 1.225100 -20.503390 -8.932330 -3.807597 30.722364 3.381645 3.582368 -15.249561 0.000000 -0.000000 0.000000 -12.036587 -8.624521 -18.469335 1.316471 -4.180276 28.112491 2.772237 -2.245758 -14.098290 0.000000 -0.000000 0.000000 2.024905 5.963099 18.343284 4.456181 -4.194304 5.997396 2.884727 0.265304 -2.029194 -0.370352 9.114293 13.729371 2.808046 0.369229 16.857055 -13.692357 -29.700447 3.280062 -81.887131 -30.925019 31.195501 0.303917 -12.575511 17.384062 1.771581 16.052315 -25.236953 18.467779 26.376182 8.562372 74.156192 31.578081 16.413719 -11.676317 6.817460 -22.981406 14.942876 7.058942 -60.190515 
-0.054741 -0.118647 0.938704 -176.055737 0.103121 90.374684 9.258050 1.207026 -20.521704 -8.954864 -3.797555 30.745897 3.381749 3.587645 -15.273799 0.000000 -0.000000 0.000000 -12.035592 -8.591941 -18.451390 1.361953 -4.071902 28.065143 2.775391 -2.201614 -14.099759 0.000000 -0.000000 0.000000 2.002531 5.946888 18.282085 4.483578 -4.227891 6.075331 2.906894 0.332752 -2.035941 -0.404078 9.126783 13.714480 2.809400 0.421724 16.884331 -13.721965 -29.746794 3.303767 -81.852866 -30.889383 31.109733 0.386707 -12.570701 17.261162 1.842490 16.006210 -25.172392 18.454512 26.493780 8.690257 74.146116 31.616530 16.369652 -11.767385 6.900697 -23.040273 15.003140 7.040074 -60.117113 
-0.054893 -0.118567 0.938590 -176.058661 0.115020 90.354458 9.254842 1.234393 -20.484933 -8.937703 -3.773491 30.742931 3.402733 3.563464 -15.274088 0.000000 -0.000000 0.000000 -12.023011 -8.636410 -18.444963 1.314996 -4.118392 28.075833 2.793825 -2.173279 -14.098734 0.000000 -0.000000 0.000000 2.036863 5.976763 18.313210 4.480435 -4.232090 6.111961 2.902469 0.331866 -2.044962 -0.395806 9.093415 13.727451 2.835132 0.364001 16.789494 -13.738416 -29.771462 3.318807 -81.811016 -30.908734 31.066590 0.381093 -12.612075 17.318950 1.690769 16.107392 -24.973446 18.445070 26.523155 8.634329 74.178237 31.628954 16.324715 -11.837328 6.791048 -23.042481 15.017681 7.029019 -59.941074 
